# AST/ASF file generated using VICON BodyLanguage
# -----------------------------------------------
:version 1.10
:name VICON
:units
  mass 1.0
  length 0.45
  angle deg
:documentation
   .ast/.asf automatically generated from VICON data using
   VICON BodyBuilder and BodyLanguage model FoxedUp or BRILLIANT.MOD
:root
   order TX TY TZ RX RY RZ
   axis XYZ
   position 0 0 0  
   orientation 0 0 0 
:bonedata
  begin
     id 1 
     name lhipjoint
     direction 0.692814 -0.645514 0.321437 
     length 2.38754 
     axis 0 0 0  XYZ
  end
  begin
     id 2 
     name lfemur
     direction 0.34202 -0.939693 0  
     length 6.41921  
     axis 0 0 20  XYZ
    dof rx ry rz
    limits (-160.0 20.0)
           (-70.0 70.0)
           (-60.0 70.0)
  end
  begin
     id 3 
     name ltibia
     direction 0.34202 -0.939693 0   
     length 6.98247   
     axis 0 0 20   XYZ
    dof rx
    limits (-10.0 170.0)
  end
  begin
     id 4 
     name lfoot
     direction 0.0947186 -0.260237 0.960888   
     length 1.83034   
     axis -90 7.62852e-016 20   XYZ
    dof rx rz
    limits (-45.0 90.0)
           (-70.0 20.0)
  end
  begin
     id 5 
     name ltoes
     direction 1.53538e-011 -4.21952e-011 1   
     length 0.920499   
     axis -90 7.62852e-016 20   XYZ
    dof rx
    limits (-90.0 20.0)
  end
  begin
     id 6 
     name rhipjoint
     direction -0.631686 -0.693949 0.345555   
     length 2.2209  
     axis 0 0 0  XYZ 
  end
  begin
     id 7 
     name rfemur
     direction -0.34202 -0.939693 0   
     length 6.49542   
     axis 0 0 -20   XYZ
    dof rx ry rz
    limits (-160.0 20.0)
           (-70.0 70.0)
           (-70.0 60.0)
  end
  begin
     id 8 
     name rtibia
     direction -0.34202 -0.939693 0   
     length 7.21712   
     axis 0 0 -20   XYZ
    dof rx
    limits (-10.0 170.0)
 end
 begin
     id 9 
     name rfoot
     direction -0.0825378 -0.226771 0.970444   
     length 1.89724  
     axis -90 -7.62852e-016 -20   XYZ
    dof rx rz
    limits (-45.0 90.0)
           (-20.0 70.0)
  end
  begin
     id 10 
     name rtoes
     direction -1.53515e-011 -4.22016e-011 1   
     length 0.955868   
     axis -90 -7.62852e-016 -20   XYZ
    dof rx
    limits (-90.0 20.0)
  end
  begin
     id 11 
     name lowerback
     direction -0.0104711 0.984802 -0.173368   
     length 1.84931   
     axis 0 0 0   XYZ
    dof rx ry rz
    limits (-20.0 45.0)
           (-30.0 30.0)
           (-30.0 30.0)
  end
  begin
     id 12 
     name upperback
     direction -0.00286433 0.999996 -0.000382853   
     length 1.85768   
     axis 0 0 0   XYZ
    dof rx ry rz
    limits (-20.0 45.0)
           (-30.0 30.0)
           (-30.0 30.0)
  end
  begin
     id 13 
     name thorax
     direction 0.00167534 0.996793 0.0800069   
     length 1.92   
     axis 0 0 0   XYZ
    dof rx ry rz
    limits (-20.0 45.0)
           (-30.0 30.0)
           (-30.0 30.0)
  end
  begin
     id 14 
     name lowerneck
     direction -0.0672491 0.995415 0.068018   
     length 1.58923   
     axis 0 0 0   XYZ
    dof rx ry rz
    limits (-20.0 45.0)
           (-30.0 30.0)
           (-30.0 30.0)
  end
  begin
     id 15 
     name upperneck
     direction 0.0958019 0.982476 -0.159884   
     length 1.60189   
     axis 0 0 0   XYZ
    dof rx ry rz
    limits (-20.0 45.0)
           (-30.0 30.0)
           (-30.0 30.0)
  end
  begin
     id 16
     name head
     direction 0.032989 0.997338 -0.0650226  
     length 1.61681  
     axis 0 0 0   XYZ
    dof rx ry rz
    limits (-20.0 45.0)
           (-30.0 30.0)
           (-30.0 30.0)
  end
  begin
     id 17 
     name lclavicle
     direction 0.954279 0.298875 -0.00496069  
     length 2.99449  
     axis 0 0 0   XYZ
    dof ry rz
    limits (-20.0 10.0)
           (0.0 20.0)
  end
  begin
     id 18 
     name lhumerus
     direction 1 -4.48985e-011 -4.2057e-027   
     length 4.79185   
     axis 180 -30 -90   XYZ
    dof rx ry rz
    limits (-60.0 90.0)
           (-90.0 90.0)
           (-90.0 90.0)
  end
  begin
     id 19
     name lradius
     direction 1 -4.48945e-011 1.15441e-028   
     length 2.65553   
     axis 180 -30 -90   XYZ
    dof rx
    limits (-10.0 170.0)
  end
  begin
     id 20
     name lwrist
     direction 1 -4.4899e-011 4.8894e-028   
     length 1.32777   
     axis -2.56392e-016 90 90   XYZ
    dof ry
    limits (-180.0 0.0)
 end
  begin
     id 21 
     name lhand
     direction 1 -4.48908e-011 9.7788e-028   
     length 0.743904   
     axis -6.23971e-016 90 90   XYZ
    dof rx rz
    limits (-90.0 90.0)
           (-45.0 45.0)
  end
  begin
     id 22 
     name lfingers
     direction 1 -4.49068e-011 1.95576e-027   
     length 0.599754   
     axis -1.24794e-015 90 90   XYZ
    dof rx
    limits (0.0 90.0)
  end
  begin
     id 23
     name lthumb
     direction 0.707107 -6.34883e-011 0.707107   
     length 0.861131   
     axis -90 45 2.85299e-015   XYZ
    dof rx rz
    limits (-45.0 45.0)
           (-45.0 45.0)
  end
  begin
     id 24 
     name rclavicle
     direction -0.957921 0.286916 0.00811568   
     length 3.06817  
     axis 0 0 0   XYZ 
    dof ry rz
    limits (-10.0 20.0)
           (-20.0 0.0)
  end
  begin
     id 25 
     name rhumerus
     direction -1 -4.48971e-011 -3.07942e-027  
     length 4.77254   
     axis 180 30 90   XYZ
    dof rx ry rz
    limits (-90.0 60.0)
           (-90.0 90.0)
           (-90.0 90.0)
  end
  begin
     id 26 
     name rradius
     direction -1 -4.48957e-011 -9.6815e-028   
     length 2.75995   
     axis 180 30 90   XYZ
    dof rx
    limits (-10.0 170.0)
  end
  begin
     id 27 
     name rwrist
     direction -1 -4.48979e-011 4.8894e-028   
     length 1.37997   
     axis -2.56392e-016 -90 -90   XYZ
    dof ry
    limits (-180.0 0.0)
  end
  begin
     id 28
     name rhand
     direction -1 -4.48906e-011 9.7788e-028   
     length 0.701619   
     axis -6.23971e-016 -90 -90   XYZ
    dof rx rz
    limits (-90.0 90.0)
           (-45.0 45.0)
  end
  begin
     id 29
     name rfingers
     direction -1 -4.49018e-011 1.95576e-027   
     length 0.565663   
     axis -1.24794e-015 -90 -90   XYZ
    dof rx
    limits (0.0 90.0)
  end
  begin
     id 30
     name rthumb
     direction -0.707107 -6.34881e-011 0.707107   
     length 0.812183   
     axis -90 -45 -2.85299e-015   XYZ
    dof rx rz
    limits (-45.0 45.0)
           (-45.0 45.0)
  end
:hierarchy
  begin
    root lhipjoint rhipjoint lowerback
    lhipjoint lfemur
    lfemur ltibia
    ltibia lfoot
    lfoot ltoes
    rhipjoint rfemur
    rfemur rtibia
    rtibia rfoot
    rfoot rtoes
    lowerback upperback
    upperback thorax
    thorax lowerneck lclavicle rclavicle
    lowerneck upperneck
    upperneck head
    lclavicle lhumerus
    lhumerus lradius
    lradius lwrist
    lwrist lhand lthumb
    lhand lfingers
    rclavicle rhumerus
    rhumerus rradius
    rradius rwrist
    rwrist rhand rthumb
    rhand rfingers
  end

#!OML:ASF F:\VICON\USERDATA\INSTALL\rory3\rory3.ASF
:FULLY-SPECIFIED
:DEGREES
778
root 0.308421 14.9294 -2.99067 2.14408 -0.529524 1.99292
lowerback 39.9012 0.503299 -4.5485
upperback 16.0312 -0.979467 0.18019
thorax -1.39659 -0.736422 2.86093
lowerneck -13.3479 -8.20795 -14.342
upperneck 22.1098 -11.4845 14.0353
head 11.0318 -4.99228 5.86702
rclavicle -1.07344e-014 -4.96962e-015
rhumerus 14.6165 25.678 -88.0485
rradius 69.2442
rwrist 33.0572
rhand 20.1311 6.29548
rfingers 7.12502
rthumb 44.6572 -17.3378
lclavicle -1.07344e-014 -4.96962e-015
lhumerus 10.5453 -18.0905 85.9868
lradius 75.6472
lwrist -4.79465
lhand 3.07628 25.5055
lfingers 7.12502
lthumb 28.5334 53.3485
rfemur -36.2797 -1.41001 13.497
rtibia 52.635
rfoot -14.4424 -4.33052
rtoes -13.8796
lfemur -34.316 2.36172 -19.5248
ltibia 48.457
lfoot -11.1669 -0.547689
ltoes -11.1191
779
root 0.307105 14.9271 -2.98717 2.02865 -0.539644 1.91619
lowerback 39.8594 0.61833 -4.28659
upperback 15.9695 -0.751812 0.129226
thorax -1.47531 -0.604644 2.59601
lowerneck -12.8843 -8.26972 -13.9228
upperneck 21.8002 -11.6885 14.0318
head 10.8318 -5.07251 5.76125
rclavicle 1.19271e-015 -3.18055e-015
rhumerus 14.4292 24.9287 -88.2925
rradius 69.3662
rwrist 33.2078
rhand 20.2732 6.40349
rfingers 7.12502
rthumb 44.7895 -17.1785
lclavicle 1.19271e-015 -3.18055e-015
lhumerus 10.4679 -18.6185 86.0536
lradius 75.7566
lwrist -4.67664
lhand 3.08542 25.3877
lfingers 7.12502
lthumb 28.5422 53.2293
rfemur -36.1311 -1.35877 13.5892
rtibia 52.6539
rfoot -14.493 -4.32801
rtoes -13.89
lfemur -34.1821 2.3754 -19.4284
ltibia 48.4596
lfoot -11.1877 -0.552955
ltoes -10.8089
780
root 0.305868 14.9262 -2.98278 1.92609 -0.544466 1.99073
lowerback 39.768 0.780588 -4.10601
upperback 15.9892 -0.493263 0.0297466
thorax -1.44622 -0.46194 2.31023
lowerneck -12.6678 -8.41418 -13.381
upperneck 21.5295 -11.9973 13.9892
head 10.7011 -5.18506 5.59884
rclavicle 2.32578e-014 -9.93923e-016
rhumerus 14.4362 24.0224 -88.503
rradius 69.4492
rwrist 33.4129
rhand 20.4057 6.38337
rfingers 7.12502
rthumb 44.9128 -17.1505
lclavicle 2.32578e-014 -9.93923e-016
lhumerus 10.6593 -19.3069 86.0309
lradius 75.7649
lwrist -4.47669
lhand 3.13166 25.4988
lfingers 7.12502
lthumb 28.5864 53.3329
rfemur -36.0053 -1.33579 13.5074
rtibia 52.6634
rfoot -14.4976 -4.30156
rtoes -13.9314
lfemur -34.0283 2.36345 -19.5018
ltibia 48.4351
lfoot -11.2148 -0.565302
ltoes -10.6695
781
root 0.304834 14.929 -2.97845 1.80854 -0.494798 2.02252
lowerback 39.6944 0.843076 -3.93978
upperback 16.081 -0.355979 -0.0220435
thorax -1.33372 -0.384902 2.12325
lowerneck -12.7355 -8.52589 -13.0846
upperneck 21.3428 -12.1845 13.9568
head 10.6538 -5.24928 5.49769
rclavicle -9.14409e-015 -5.46658e-015
rhumerus 14.6097 23.4663 -88.5469
rradius 69.573
rwrist 33.4977
rhand 20.5067 6.32559
rfingers 7.12502
rthumb 45.0068 -17.1713
lclavicle -9.14409e-015 -5.46658e-015
lhumerus 11.0213 -19.6969 86.0345
lradius 75.6604
lwrist -4.22167
lhand 3.05708 25.5086
lfingers 7.12502
lthumb 28.5151 53.3547
rfemur -35.8329 -1.33148 13.4635
rtibia 52.6426
rfoot -14.5317 -4.32227
rtoes -14.0094
lfemur -33.8568 2.32959 -19.5304
ltibia 48.4077
lfoot -11.2404 -0.584831
ltoes -10.5943
782
root 0.300981 14.9317 -2.97524 1.68777 -0.472365 2.02504
lowerback 39.7594 0.762725 -4.13167
upperback 16.0414 -0.520492 0.0362592
thorax -1.38368 -0.478566 2.33916
lowerneck -12.6992 -8.38093 -13.4179
upperneck 21.2768 -11.9076 13.9729
head 10.6018 -5.15133 5.60497
rclavicle -1.39149e-014 -1.61016e-014
rhumerus 14.7012 23.8753 -88.5579
rradius 69.6688
rwrist 33.5598
rhand 20.6431 6.53079
rfingers 7.12502
rthumb 45.1337 -16.9159
lclavicle -1.39149e-014 -1.61016e-014
lhumerus 10.8032 -19.0952 86.2631
lradius 75.7534
lwrist -4.13603
lhand 2.99059 25.238
lfingers 7.12502
lthumb 28.4516 53.0948
rfemur -35.6757 -1.27486 13.4635
rtibia 52.6177
rfoot -14.5008 -4.38126
rtoes -13.9076
lfemur -33.6941 2.35642 -19.5219
ltibia 48.3756
lfoot -11.2437 -0.593037
ltoes -11.0945
783
root 0.296806 14.9324 -2.9744 1.5921 -0.442804 1.9579
lowerback 39.801 0.768568 -4.1535
upperback 16.0404 -0.519738 0.0905701
thorax -1.39663 -0.482652 2.40732
lowerneck -12.7425 -8.35883 -13.4397
upperneck 21.2208 -11.8583 13.9606
head 10.5825 -5.13093 5.60922
rclavicle -4.57205e-015 -4.87022e-015
rhumerus 14.8387 23.8186 -88.5955
rradius 69.7467
rwrist 33.6312
rhand 20.6907 6.80067
rfingers 7.12502
rthumb 45.1779 -16.6285
lclavicle -4.57205e-015 -4.87022e-015
lhumerus 10.795 -18.9533 86.3772
lradius 75.759
lwrist -4.03197
lhand 3.01287 24.9597
lfingers 7.12502
lthumb 28.4729 52.8129
rfemur -35.5383 -1.17909 13.5374
rtibia 52.5894
rfoot -14.4858 -4.42752
rtoes -13.2887
lfemur -33.5856 2.36489 -19.4275
ltibia 48.3593
lfoot -11.2648 -0.598144
ltoes -11.4642
784
root 0.29565 14.9318 -2.97376 1.50322 -0.394416 1.95451
lowerback 39.8289 0.78082 -4.11774
upperback 16.0984 -0.490967 0.0975546
thorax -1.3432 -0.468527 2.38607
lowerneck -12.9685 -8.39577 -13.3391
upperneck 21.2187 -11.911 13.9685
head 10.6283 -5.13694 5.58
rclavicle -5.96354e-015 1.98785e-016
rhumerus 15.0565 23.6736 -88.5695
rradius 69.8306
rwrist 33.5078
rhand 20.596 6.79026
rfingers 7.12502
rthumb 45.0899 -16.6738
lclavicle -5.96354e-015 1.98785e-016
lhumerus 11.0415 -19.0998 86.3471
lradius 75.743
lwrist -3.87312
lhand 3.08266 25.249
lfingers 7.12502
lthumb 28.5395 53.091
rfemur -35.393 -1.13578 13.5287
rtibia 52.5648
rfoot -14.5255 -4.47099
rtoes -12.9168
lfemur -33.4896 2.3262 -19.4201
ltibia 48.3508
lfoot -11.2967 -0.59157
ltoes -11.7194
785
root 0.296016 14.9303 -2.97307 1.39977 -0.360379 1.93875
lowerback 39.9622 0.603455 -4.33322
upperback 16.0634 -0.783371 0.172531
thorax -1.39812 -0.627533 2.67541
lowerneck -13.1982 -8.18768 -13.869
upperneck 21.4292 -11.5029 13.9965
head 10.7202 -4.97943 5.74882
rclavicle 0 -7.35503e-015
rhumerus 15.2119 24.4848 -88.4667
rradius 69.9088
rwrist 33.2056
rhand 20.7308 6.76555
rfingers 7.12502
rthumb 45.2152 -16.6487
lclavicle 0 -7.35503e-015
lhumerus 10.8365 -18.3422 86.5499
lradius 75.9309
lwrist -4.04663
lhand 3.30795 25.9423
lfingers 7.12502
lthumb 28.7548 53.748
rfemur -35.2575 -1.09982 13.5364
rtibia 52.5366
rfoot -14.5359 -4.52439
rtoes -13.1875
lfemur -33.3701 2.31041 -19.4061
ltibia 48.3387
lfoot -11.3149 -0.58914
ltoes -11.9215
786
root 0.294814 14.9308 -2.97222 1.32054 -0.359429 1.968
lowerback 40.0504 0.521728 -4.50406
upperback 16.0262 -0.945028 0.215292
thorax -1.44968 -0.717407 2.86372
lowerneck -13.2611 -8.06407 -14.2456
upperneck 21.5657 -11.2629 14.0494
head 10.7706 -4.89196 5.87612
rclavicle -1.80894e-014 9.93923e-016
rhumerus 15.2725 24.9298 -88.4445
rradius 69.972
rwrist 32.9176
rhand 20.9292 6.69773
rfingers 7.12502
rthumb 45.3997 -16.6426
lclavicle -1.80894e-014 9.93923e-016
lhumerus 10.6584 -17.8054 86.7889
lradius 76.0694
lwrist -4.55875
lhand 4.03416 26.2788
lfingers 7.12502
lthumb 29.4483 53.9645
rfemur -35.1503 -1.03718 13.4971
rtibia 52.4971
rfoot -14.5462 -4.53853
rtoes -13.1752
lfemur -33.2613 2.31729 -19.431
ltibia 48.3123
lfoot -11.2992 -0.614867
ltoes -11.6426
787
root 0.292899 14.9322 -2.97159 1.22051 -0.361213 1.93147
lowerback 40.1191 0.487267 -4.57965
upperback 16.0758 -1.01322 0.264225
thorax -1.40768 -0.76048 2.97694
lowerneck -13.4507 -8.01735 -14.3773
upperneck 21.6125 -11.1397 14.0145
head 10.8103 -4.84216 5.9028
rclavicle 6.36111e-015 -9.93923e-016
rhumerus 15.388 25.1866 -88.4108
rradius 70.1049
rwrist 32.6973
rhand 21.1446 6.52993
rfingers 7.12502
rthumb 45.5998 -16.7294
lclavicle 6.36111e-015 -9.93923e-016
lhumerus 10.698 -18.0194 86.8142
lradius 75.8493
lwrist -3.19253
lhand 1.71129 25.0401
lfingers 7.12502
lthumb 27.2284 53.0949
rfemur -35.0026 -0.988078 13.5478
rtibia 52.4491
rfoot -14.5287 -4.59611
rtoes -13.4344
lfemur -33.1202 2.33046 -19.381
ltibia 48.2736
lfoot -11.283 -0.651253
ltoes -11.1364
788
root 0.291754 14.9356 -2.97149 1.16163 -0.313784 1.84871
lowerback 40.0911 0.543639 -4.34863
upperback 16.1437 -0.860987 0.246015
thorax -1.34135 -0.674253 2.7866
lowerneck -13.3733 -8.10694 -13.9501
upperneck 21.4259 -11.326 13.9017
head 10.7224 -4.90777 5.75147
rclavicle -4.77083e-015 1.39149e-015
rhumerus 15.4033 24.6699 -88.5227
rradius 70.1812
rwrist 32.6448
rhand 21.2157 6.5665
rfingers 7.12502
rthumb 45.6658 -16.6659
lclavicle -4.77083e-015 1.39149e-015
lhumerus 10.9022 -18.6179 86.7629
lradius 75.7861
lwrist -3.09425
lhand 1.90725 25.5454
lfingers 7.12502
lthumb 27.4159 53.5707
rfemur -34.8848 -0.972539 13.6438
rtibia 52.3902
rfoot -14.4902 -4.64465
rtoes -13.2114
lfemur -33.0347 2.29412 -19.2825
ltibia 48.2244
lfoot -11.2777 -0.64446
ltoes -10.818
789
root 0.290049 14.9377 -2.97095 1.13609 -0.225279 1.84302
lowerback 40.0494 0.645223 -4.04413
upperback 16.1599 -0.63023 0.177665
thorax -1.33387 -0.538702 2.4795
lowerneck -13.0974 -8.25612 -13.4415
upperneck 21.2257 -11.6635 13.9076
head 10.6179 -5.03312 5.61225
rclavicle -4.37326e-015 -1.68967e-015
rhumerus 15.2433 23.8063 -88.7586
rradius 70.2288
rwrist 32.7489
rhand 21.0875 6.6319
rfingers 7.12502
rthumb 45.5468 -16.649
lclavicle -4.37326e-015 -1.68967e-015
lhumerus 11.0143 -19.6082 86.697
lradius 75.7541
lwrist -2.97285
lhand 2.1549 26.3501
lfingers 7.12502
lthumb 27.6527 54.3376
rfemur -34.7842 -0.959618 13.6247
rtibia 52.3349
rfoot -14.5514 -4.58484
rtoes -11.8664
lfemur -32.9901 2.2208 -19.2696
ltibia 48.1725
lfoot -11.2552 -0.633312
ltoes -11.05
790
root 0.288107 14.9403 -2.96981 1.12282 -0.156528 1.8792
lowerback 40.0883 0.496221 -4.27662
upperback 16.1562 -0.889367 0.231151
thorax -1.32695 -0.682181 2.74351
lowerneck -13.2652 -8.09522 -13.8479
upperneck 21.3231 -11.3466 13.9482
head 10.6637 -4.91002 5.74774
rclavicle -1.35174e-014 6.75868e-015
rhumerus 15.2944 24.5136 -88.7374
rradius 70.2227
rwrist 32.6318
rhand 20.9489 6.56229
rfingers 7.12502
rthumb 45.418 -16.7707
lclavicle -1.35174e-014 6.75868e-015
lhumerus 10.802 -19.0378 86.9185
lradius 75.7097
lwrist -2.99029
lhand 2.17704 26.279
lfingers 7.12502
lthumb 27.6739 54.2631
rfemur -34.7131 -0.927739 13.5545
rtibia 52.2903
rfoot -14.6352 -4.49291
rtoes -10.6477
lfemur -32.9524 2.12429 -19.2974
ltibia 48.1318
lfoot -11.2538 -0.625797
ltoes -11.3501
